<svg width="24" height="30" viewBox="0 0 24 30" fill="none" xmlns="http://www.w3.org/2000/svg">
    <g clip-path="url(#clip0_29224_131)">
        <path d="M12.0105 19.6365C16.8558 16.3147 19.3971 13.2928 20.4392 10.7637C22.3962 6.01291 19.0641 3 15.7778 3C14.3756 3 12.9813 3.54898 12.0105 4.74559C11.0395 3.54873 9.64557 3 8.24308 3C4.95706 3 1.62488 6.01333 3.58168 10.7637C4.62386 13.2928 7.16507 16.3147 12.0105 19.6365ZM12.0105 21.6365C11.6154 21.6365 11.2204 21.5197 10.8796 21.2861C6.13987 18.0367 3.06235 14.7529 1.73252 11.5256C0.626716 8.84119 0.775706 6.23099 2.15195 4.17563C3.46355 2.21683 5.79753 1 8.24308 1C9.61323 1 10.9151 1.38581 12.0105 2.09276C13.1058 1.38582 14.4077 1 15.7778 1C18.2236 1 20.5576 2.21678 21.8691 4.17549C23.2453 6.23077 23.3943 8.84102 22.2885 11.5254C20.9586 14.7529 17.881 18.0367 13.1413 21.2861C12.8006 21.5197 12.4055 21.6365 12.0105 21.6365Z" fill="white"/>
    </g>
    <defs>
        <clipPath id="clip0_29224_131">
            <rect width="22.022" height="20.636" fill="white" transform="translate(1 1)"/>
        </clipPath>
    </defs>
</svg>
