<svg width="16" height="17" viewBox="0 0 16 17" fill="none" xmlns="http://www.w3.org/2000/svg">
    <path d="M10.618 15.568H5.38399C4.72734 15.5573 4.1011 15.2894 3.63982 14.8219C3.17853 14.3545 2.919 13.7247 2.91699 13.068L2.09399 3.5H13.982L13.16 13.063C13.155 13.7322 12.8844 14.3721 12.4077 14.8418C11.931 15.3116 11.2872 15.5728 10.618 15.568V15.568Z" stroke="#D97474" stroke-miterlimit="10"/>
    <path d="M5.9519 6.53613V12.5321" stroke="#D97474" stroke-miterlimit="10" stroke-linecap="round"/>
    <path d="M10.051 6.53613V12.5321" stroke="#D97474" stroke-miterlimit="10" stroke-linecap="round"/>
    <path d="M3.08098 3.5C3.05014 3.13659 3.09125 2.77066 3.20194 2.42314C3.31263 2.07562 3.49075 1.75334 3.72609 1.47471C3.96144 1.19609 4.2494 0.966585 4.57352 0.799336C4.89763 0.632086 5.25153 0.530369 5.61498 0.5H10.46C11.1811 0.578564 11.8426 0.936756 12.3026 1.49766C12.7625 2.05857 12.9842 2.77747 12.92 3.5H3.08098Z" stroke="#D97474" stroke-miterlimit="10"/>
    <path d="M0.5 3.5H15.5" stroke="#D97474" stroke-miterlimit="10" stroke-linecap="round"/>
</svg>
